<?xml version="1.0" standalone="no"?>
<!DOCTYPE svg PUBLIC "-//W3C//DTD SVG 20010904//EN"
 "http://www.w3.org/TR/2001/REC-SVG-20010904/DTD/svg10.dtd">
<svg version="1.0" xmlns="http://www.w3.org/2000/svg"
 width="300.000000pt" height="300.000000pt" viewBox="0 0 300.000000 300.000000"
 preserveAspectRatio="xMidYMid meet">
<metadata>
Created by potrace 1.10, written by Peter Selinger 2001-2011
</metadata>
<g transform="translate(0.000000,300.000000) scale(0.100000,-0.100000)"
fill="#000000" stroke="none">
<path d="M1070 2976 c0 -21 5 -24 70 -30 91 -8 209 -46 290 -93 98 -57 217
-181 267 -278 59 -114 82 -206 90 -357 3 -75 2 -128 -3 -128 -5 0 -27 7 -49
14 l-40 14 -6 110 c-12 195 -65 319 -188 442 -129 128 -283 187 -466 177 -110
-6 -128 -12 -119 -41 9 -28 6 -27 45 -16 51 15 177 12 244 -5 100 -25 184 -74
261 -150 115 -113 173 -260 174 -434 l0 -73 -31 6 c-17 3 -40 6 -50 6 -17 0
-19 8 -19 78 0 139 -39 238 -132 338 -108 115 -263 169 -412 145 -79 -13 -173
-55 -229 -102 -36 -30 -37 -32 -21 -50 16 -18 18 -18 52 13 49 42 129 77 208
90 121 20 250 -21 345 -109 96 -90 139 -189 139 -323 0 -72 -2 -80 -19 -80
-10 0 -32 -3 -49 -6 l-30 -6 -4 98 c-4 115 -23 166 -90 234 -62 65 -136 95
-233 95 -96 0 -150 -22 -220 -86 -41 -38 -95 -122 -95 -148 0 -5 11 -11 24
-13 19 -4 25 1 36 30 16 46 84 118 135 145 31 17 58 22 120 22 70 0 87 -4 133
-29 55 -31 103 -82 123 -132 7 -16 15 -73 18 -126 l6 -97 -47 -16 c-26 -8 -49
-15 -52 -15 -3 0 -3 26 0 58 17 158 -85 273 -213 240 -113 -28 -156 -163 -77
-242 62 -61 170 -39 190 39 14 54 -24 115 -71 115 -29 0 -75 -40 -75 -65 0
-20 39 -20 55 2 20 27 47 9 43 -29 -6 -63 -95 -65 -125 -3 -14 30 -14 38 -2
71 28 74 122 94 181 37 36 -34 48 -78 48 -174 0 -76 0 -77 -31 -90 -18 -7 -53
-30 -80 -51 -46 -36 -52 -38 -121 -38 l-73 0 3 -85 c3 -71 0 -90 -17 -118 -11
-17 -32 -68 -47 -112 -26 -73 -28 -93 -29 -229 l-1 -148 -27 -14 c-28 -15 -31
-22 -21 -48 4 -11 19 -16 43 -16 35 0 37 -2 69 -71 30 -64 33 -78 31 -151 l-2
-81 69 2 c65 2 73 0 109 -29 22 -18 59 -43 83 -57 l43 -25 -1 -227 -2 -226 27
-3 26 -3 -3 437 -3 437 35 37 c19 20 43 49 53 63 13 19 27 27 47 27 26 0 30 4
30 26 0 25 -2 26 -42 21 -33 -4 -49 -13 -68 -38 -14 -17 -36 -45 -50 -61 l-25
-29 -180 3 -180 3 67 32 c276 131 649 159 968 72 92 -25 260 -90 260 -101 0
-4 -81 -8 -179 -8 l-179 0 -24 31 c-57 76 -85 99 -122 99 -32 0 -36 -3 -36
-25 0 -21 5 -25 30 -25 20 0 34 -8 47 -27 10 -14 35 -44 56 -66 l38 -40 -1
-431 -2 -431 23 0 22 0 -2 225 -2 225 87 58 c86 58 88 58 153 56 l66 -2 -3 80
c-4 74 -1 86 30 151 l33 71 45 3 c37 2 46 7 48 24 2 14 -7 26 -31 39 l-34 18
5 116 c5 134 -14 233 -69 348 -29 61 -31 72 -27 144 l5 79 -76 0 c-65 0 -78 3
-100 24 -15 13 -48 37 -76 53 l-50 29 -6 165 c-4 134 -10 176 -28 228 -65 187
-180 334 -331 426 -109 66 -201 95 -347 109 -50 5 -53 4 -53 -18z m653 -919
c42 -15 103 -42 135 -59 l57 -33 -185 -5 -185 -5 0 -220 0 -220 35 -5 c29 -4
36 -10 38 -32 l3 -28 -105 0 c-85 0 -106 3 -106 14 0 32 13 46 41 46 l29 0 0
225 0 225 -181 0 c-99 0 -178 4 -175 8 10 17 158 83 227 102 107 29 265 23
372 -13z m-733 -145 c0 -5 -11 -19 -25 -32 l-25 -23 0 25 c0 13 3 28 7 31 9
10 43 9 43 -1z m1098 -27 l4 -30 -26 24 c-32 30 -33 43 -3 39 16 -2 23 -11 25
-33z m-658 -110 l0 -135 -102 0 c-120 1 -136 8 -177 72 -34 54 -78 73 -152 66
-27 -3 -49 -2 -49 1 0 4 23 34 50 69 l51 62 189 0 190 0 0 -135z m602 70 c26
-32 48 -61 48 -65 0 -3 -34 -5 -76 -5 -83 0 -79 2 -155 -96 l-26 -34 -112 0
-113 0 -1 133 -2 132 195 -2 194 -3 48 -60z m-1038 -121 c14 -5 16 -31 16
-184 0 -177 0 -179 -22 -186 -13 -4 -45 -17 -72 -30 -38 -19 -52 -21 -58 -12
-15 25 -8 193 11 269 32 122 46 149 80 149 16 0 36 -3 45 -6z m80 0 c8 -3 29
-28 47 -55 17 -27 40 -54 50 -59 10 -6 72 -10 138 -10 l121 0 0 -25 c0 -18 -5
-25 -20 -25 -24 0 -40 -28 -40 -73 l0 -34 -61 -7 c-34 -4 -105 -18 -157 -32
-53 -13 -97 -24 -97 -24 0 0 0 79 0 175 0 96 1 175 2 175 1 0 8 -3 17 -6z
m906 -169 c0 -96 -1 -175 -3 -175 -1 0 -46 11 -99 24 -52 14 -122 28 -154 31
l-59 7 -1 39 c-2 45 -15 65 -49 73 -16 4 -25 13 -25 26 0 19 7 20 126 20 l126
0 32 34 c17 19 41 48 54 65 47 62 52 48 52 -144z m149 132 c36 -84 52 -177 49
-282 -2 -60 -7 -99 -13 -98 -5 2 -40 15 -77 30 l-68 27 0 171 c0 188 2 195 57
195 30 0 36 -5 52 -43z m-1121 -529 c-3 -31 -6 -33 -45 -36 -38 -3 -43 0 -57
27 -9 16 -16 32 -16 36 0 3 27 5 61 5 l60 0 -3 -32z m192 -143 c0 -96 -3 -175
-7 -175 -5 0 -39 24 -78 53 -62 46 -165 158 -165 179 0 4 15 8 33 8 17 0 37 4
44 8 17 11 34 62 28 83 -6 17 0 19 69 19 l76 0 0 -175z m780 136 c0 -49 21
-71 66 -71 19 0 34 -4 34 -9 0 -33 -208 -231 -241 -231 -5 0 -9 79 -9 175 l0
175 75 0 75 0 0 -39z m160 34 c0 -4 -7 -19 -15 -35 -13 -25 -21 -30 -54 -30
-40 0 -51 11 -51 51 0 17 8 19 60 19 33 0 60 -2 60 -5z m-1150 -247 c0 -5 -10
-8 -22 -6 -17 2 -24 11 -26 33 l-4 30 26 -24 c14 -14 26 -29 26 -33z m1100 22
c0 -25 -4 -30 -25 -30 -31 0 -31 7 -3 37 27 29 28 29 28 -7z"/>
<path d="M1930 2193 c-20 -37 -21 -46 -9 -54 24 -15 35 -10 54 29 11 20 21 40
22 43 2 3 -7 10 -20 16 -21 10 -25 7 -47 -34z"/>
<path d="M713 1887 c-10 -21 -7 -26 33 -48 39 -21 46 -22 54 -9 5 8 10 18 10
21 0 6 -75 59 -83 59 -2 0 -9 -10 -14 -23z"/>
<path d="M2262 1886 c-45 -32 -45 -32 -33 -55 11 -20 12 -20 55 7 39 24 42 29
33 50 -12 27 -14 27 -55 -2z"/>
<path d="M530 1425 l0 -25 110 0 110 0 0 25 0 25 -110 0 -110 0 0 -25z"/>
<path d="M2280 1425 l0 -25 110 0 110 0 0 25 0 25 -110 0 -110 0 0 -25z"/>
<path d="M1410 1268 c-75 -21 -70 18 -70 -555 l0 -513 25 0 25 0 0 504 0 504
36 12 c38 13 180 10 202 -4 9 -5 12 -132 12 -512 l0 -504 25 0 25 0 0 513 c0
576 6 534 -75 556 -49 13 -157 13 -205 -1z"/>
<path d="M1490 620 l0 -540 25 0 25 0 0 540 0 540 -25 0 -25 0 0 -540z"/>
<path d="M738 1006 c-35 -21 -37 -32 -13 -64 2 -2 66 32 83 44 9 6 -10 44 -21
43 -7 0 -28 -11 -49 -23z"/>
<path d="M2225 1009 c-4 -11 -5 -22 -3 -23 17 -12 81 -46 83 -44 25 32 22 43
-17 65 -49 28 -55 28 -63 2z"/>
<path d="M1056 679 c-15 -22 -26 -42 -24 -44 2 -1 12 -7 24 -13 18 -9 23 -6
45 34 21 39 22 46 9 54 -23 15 -25 13 -54 -31z"/>
<path d="M1920 710 c-13 -8 -12 -15 9 -54 22 -40 27 -43 45 -34 12 6 22 12 24
13 5 5 -48 85 -56 85 -4 0 -14 -5 -22 -10z"/>
</g>
</svg>
