<?xml version="1.0" standalone="no"?>
<!DOCTYPE svg PUBLIC "-//W3C//DTD SVG 20010904//EN"
 "http://www.w3.org/TR/2001/REC-SVG-20010904/DTD/svg10.dtd">
<svg version="1.0" xmlns="http://www.w3.org/2000/svg"
 width="300.000000pt" height="300.000000pt" viewBox="0 0 300.000000 300.000000"
 preserveAspectRatio="xMidYMid meet">
<metadata>
Created by potrace 1.10, written by Peter Selinger 2001-2011
</metadata>
<g transform="translate(0.000000,300.000000) scale(0.100000,-0.100000)"
fill="#000000" stroke="none">
<path d="M1030 2976 c0 -15 12 -34 30 -50 30 -25 31 -25 8 -30 -13 -3 -48 -7
-78 -10 -98 -10 -139 -68 -85 -122 14 -14 25 -27 23 -28 -2 -1 -37 -19 -79
-39 -70 -34 -149 -101 -149 -126 0 -15 51 -71 64 -71 7 0 39 17 72 38 66 42
94 55 94 43 0 -4 -18 -16 -41 -26 -71 -32 -168 -159 -169 -221 0 -11 11 -31
25 -44 37 -34 70 -19 110 49 59 100 152 143 259 121 112 -23 187 -117 185
-229 -1 -31 -3 -45 -5 -31 -20 130 -88 213 -193 235 -84 18 -196 -56 -218
-143 -21 -83 21 -173 96 -207 39 -17 83 -17 141 0 15 5 2 -9 -34 -35 -52 -38
-66 -43 -128 -48 -65 -4 -71 -7 -89 -36 -10 -17 -19 -46 -19 -65 l0 -35 -27
25 c-63 56 -107 60 -138 13 -20 -32 -12 -58 28 -88 54 -40 75 -42 109 -9 l30
28 -5 -30 c-4 -16 -22 -77 -41 -135 -19 -58 -37 -122 -41 -142 l-6 -38 -113 0
c-105 0 -114 -2 -134 -23 -28 -30 -28 -58 1 -85 21 -20 34 -22 135 -22 l112 0
0 -33 c0 -20 -10 -47 -25 -67 -14 -19 -25 -37 -25 -41 0 -17 52 -68 73 -71 25
-3 67 -70 67 -107 l0 -24 -22 20 c-13 11 -28 23 -35 27 -18 10 -90 -30 -110
-60 -15 -23 -15 -29 -2 -52 30 -53 73 -54 133 -2 l33 30 6 -46 c7 -68 31 -87
114 -92 58 -4 75 -10 125 -44 32 -22 58 -46 58 -54 0 -17 -1 -17 -36 1 -34 17
-56 7 -91 -45 -29 -42 -29 -65 2 -95 32 -33 47 -31 90 6 l35 31 1 -58 c2 -226
4 -252 22 -272 28 -31 55 -33 85 -7 26 23 27 27 33 157 l5 133 2 -183 c2 -202
10 -236 59 -248 23 -6 32 -1 60 31 l33 38 0 -72 c0 -65 3 -74 26 -96 34 -31
49 -31 79 0 25 24 29 52 27 190 -1 25 1 23 9 -11 21 -87 95 -110 125 -39 9 22
15 74 16 142 1 91 2 99 7 47 7 -71 30 -104 71 -104 31 0 58 25 64 61 2 13 5
84 5 158 l1 133 35 -31 c43 -38 58 -39 91 -5 29 28 27 57 -7 106 -31 43 -56
53 -84 34 -30 -20 -35 -20 -35 -2 0 8 26 32 58 54 50 34 67 40 124 44 83 5
105 22 114 89 l7 49 33 -30 c60 -52 103 -51 133 2 13 23 13 29 -2 52 -20 30
-92 70 -110 60 -7 -4 -22 -16 -34 -27 l-23 -20 0 22 c0 12 9 39 20 61 15 29
28 40 52 45 40 9 57 22 69 53 10 26 -9 68 -38 85 -7 4 -13 24 -13 42 l0 35
113 0 c106 0 115 2 135 23 28 30 28 58 -1 85 -21 20 -34 22 -133 22 l-111 0
-17 83 c-10 45 -31 113 -47 152 -16 38 -29 78 -29 89 0 18 3 17 29 -8 34 -33
61 -29 115 15 42 36 45 56 11 93 -35 38 -69 33 -127 -21 l-27 -25 -6 38 c-12
78 -23 88 -100 94 -61 5 -78 11 -133 48 -34 24 -62 49 -62 57 0 19 5 19 35 -1
23 -15 27 -15 50 0 29 19 65 73 65 97 0 22 -45 69 -65 69 -9 0 -30 -14 -47
-30 -17 -17 -32 -30 -33 -28 -2 2 -8 45 -14 97 -36 297 -197 523 -468 660 -60
30 -67 31 -175 30 -98 -2 -105 -3 -53 -9 171 -20 333 -105 458 -239 141 -153
207 -342 207 -595 0 -86 2 -93 23 -103 12 -6 47 -29 77 -52 52 -39 57 -41 128
-41 l73 0 -2 -88 c-1 -71 2 -95 19 -128 53 -105 67 -171 67 -326 l0 -146 33
-18 c17 -9 32 -23 32 -30 0 -32 -11 -39 -53 -36 l-42 4 -30 -69 c-26 -58 -30
-80 -30 -153 l0 -85 -66 3 c-65 4 -66 3 -148 -52 l-82 -56 1 -230 1 -230 -31
0 -31 0 3 439 c3 411 2 440 -15 450 -9 6 -33 34 -53 61 -29 40 -42 50 -65 50
-24 0 -29 4 -29 25 0 22 4 25 36 25 37 0 65 -23 122 -99 l24 -31 179 0 c98 0
179 4 179 8 0 11 -180 80 -265 102 -156 40 -271 53 -424 47 -205 -7 -389 -49
-547 -124 l-59 -28 180 -3 180 -3 25 31 c68 84 87 100 124 100 32 0 36 -3 36
-25 0 -21 -5 -25 -30 -25 -25 0 -36 -9 -66 -55 -20 -30 -44 -57 -53 -60 -14
-4 -16 -46 -13 -445 l2 -440 -28 0 -28 0 0 229 1 229 -84 57 c-83 55 -85 56
-150 54 l-66 -2 0 84 c0 71 -4 94 -30 152 -29 65 -30 67 -66 67 -24 0 -39 5
-43 16 -10 26 -7 33 23 48 l28 15 -5 118 c-5 135 14 236 68 351 27 58 29 68
23 142 l-6 80 71 0 c69 0 72 1 157 58 l87 57 -5 93 c-5 106 -19 135 -79 165
-83 41 -184 -42 -146 -121 37 -76 148 -60 123 18 -7 23 -33 27 -41 5 -8 -20
-54 -20 -54 0 0 25 47 65 75 65 68 0 102 -104 51 -155 -67 -67 -178 -33 -207
63 -32 109 82 214 199 183 50 -14 107 -75 122 -133 7 -23 10 -71 8 -105 -2
-35 -3 -63 -3 -63 1 0 23 7 49 16 l48 16 -4 97 c-4 111 -20 154 -81 213 -43
42 -129 78 -186 78 -106 0 -222 -75 -256 -164 -14 -37 -20 -42 -41 -38 -30 5
-30 11 1 72 33 64 87 117 155 149 77 37 201 37 275 1 123 -60 185 -166 185
-317 0 -84 0 -85 23 -79 12 3 34 6 50 6 27 0 27 0 27 73 0 134 -45 241 -137
328 -151 143 -390 154 -548 24 -42 -34 -43 -34 -60 -15 -16 18 -16 20 11 45
45 39 162 94 229 106 167 31 356 -44 460 -183 64 -85 87 -153 93 -275 l5 -103
26 0 c14 0 37 -3 50 -7 l24 -6 -6 104 c-3 60 -14 131 -26 169 -78 248 -313
412 -571 397 -47 -3 -92 -8 -102 -12 -19 -8 -36 31 -20 47 5 5 55 12 109 15
180 10 335 -44 459 -159 132 -124 191 -258 201 -455 l6 -112 45 -16 c25 -8 46
-14 47 -12 8 13 -17 304 -30 347 -57 184 -197 349 -369 434 -77 38 -217 76
-282 76 -39 0 -41 2 -36 25 3 20 0 25 -17 25 -16 0 -21 -6 -21 -24z m410 -182
c115 -75 206 -188 255 -317 36 -97 31 -107 -8 -12 -57 140 -160 265 -273 331
-24 14 -44 28 -44 30 0 10 20 1 70 -32z m-1 -193 c34 -32 61 -63 61 -68 0 -6
6 -16 14 -22 8 -7 19 -27 25 -44 8 -26 8 -29 -2 -13 -7 10 -24 37 -39 61 -33
49 -57 76 -118 129 -25 21 -35 33 -23 27 12 -6 49 -37 82 -70z m-98 -106 c35
-35 96 -141 87 -150 -2 -2 -16 20 -32 50 -27 53 -87 122 -136 158 -24 17 -24
17 9 0 18 -10 51 -36 72 -58z m642 -269 c16 -13 16 -16 -9 -59 -23 -41 -27
-45 -45 -34 -24 15 -24 19 4 67 25 44 25 45 50 26z m-1210 -342 c45 -25 46
-26 31 -49 l-15 -23 -43 26 c-39 24 -42 29 -33 50 6 12 11 22 12 22 2 0 23
-12 48 -26z m1545 5 c7 -12 12 -22 10 -24 -2 -1 -22 -14 -46 -29 l-42 -26 -13
27 c-7 16 -8 28 -2 30 6 2 24 12 40 22 38 25 38 25 53 0z m-1562 -464 l2 -25
-114 0 -114 0 0 25 0 25 113 0 112 0 1 -25z m1744 0 l0 -25 -112 0 -113 0 0
25 0 25 113 0 112 0 0 -25z m-925 -85 c0 -11 -15 -16 -62 -18 -48 -2 -63 0
-63 11 0 24 12 28 70 25 41 -2 55 -7 55 -18z m-345 -25 c0 -21 -32 -35 -79
-35 -68 0 -44 23 44 43 34 8 35 7 35 -8z m652 -5 c26 -7 45 -16 42 -21 -7 -12
-81 -11 -105 1 -24 14 -26 43 -1 37 9 -3 38 -10 64 -17z m-251 -45 c24 -9 47
-21 51 -28 4 -7 8 -243 8 -524 l0 -513 -27 0 -28 0 3 504 2 505 -37 10 c-21 6
-60 11 -88 11 -27 0 -67 -5 -88 -11 l-37 -10 2 -505 3 -504 -27 0 -28 0 0 513
c0 281 4 518 9 525 24 38 202 55 282 27z m-91 -645 l0 -540 -25 0 -25 0 0 540
0 540 25 0 25 0 0 -540z m58 449 c-3 -41 -18 -36 -18 7 0 21 4 33 10 29 6 -4
9 -20 8 -36z m139 -61 c-2 -18 -4 -4 -4 32 0 36 2 50 4 33 2 -18 2 -48 0 -65z
m592 -28 c0 -3 -6 -13 -13 -23 -13 -17 -16 -17 -52 4 -22 13 -41 24 -43 26 -2
1 1 14 7 28 l11 25 45 -28 c25 -15 45 -29 45 -32z m-1522 31 c11 -18 7 -22
-34 -45 -43 -25 -46 -25 -59 -9 -19 25 -18 25 24 50 46 27 54 28 69 4z m303
-301 c18 -10 18 -12 -8 -55 -30 -50 -30 -50 -54 -31 -17 12 -17 15 5 54 24 45
28 47 57 32z m867 -32 c22 -39 22 -42 5 -54 -24 -19 -24 -19 -54 31 -25 41
-26 45 -10 54 28 17 36 13 59 -31z"/>
<path d="M1354 2070 c-65 -17 -234 -93 -234 -106 0 -2 80 -4 178 -4 97 1 178
-1 180 -4 1 -3 2 -105 2 -226 l0 -220 -29 0 c-27 0 -40 -18 -41 -52 0 -5 47
-8 105 -8 84 0 105 3 105 14 0 33 -13 46 -46 46 l-34 0 0 225 0 225 188 2 187
3 -84 43 c-156 81 -323 103 -477 62z m316 -42 l35 -15 -80 -7 c-44 -5 -86 -13
-93 -18 -9 -8 -20 -8 -38 1 -14 6 -46 11 -72 12 -26 1 -58 4 -72 8 -24 7 -24
8 10 19 19 6 46 13 60 16 47 9 215 -2 250 -16z"/>
<path d="M958 1913 c-12 -3 -18 -14 -18 -30 l0 -26 25 23 c24 23 33 41 18 39
-5 -1 -16 -3 -25 -6z"/>
<path d="M1002 1848 l-50 -63 66 -5 c81 -6 93 -13 141 -76 l37 -49 117 -5 117
-5 0 133 0 132 -189 0 -189 0 -50 -62z m383 -68 l0 -85 -81 -3 -81 -3 -47 56
c-36 41 -58 58 -92 68 -43 12 -44 13 -28 35 15 22 20 22 172 20 l157 -3 0 -85z"/>
<path d="M1597 1779 l2 -131 113 1 c109 1 114 2 133 27 11 14 37 44 57 66 l37
40 71 -4 c38 -1 70 -1 70 2 0 3 -23 33 -50 68 l-51 62 -192 0 -192 0 2 -131z
m371 75 c31 -22 28 -31 -16 -38 -38 -6 -67 -28 -124 -95 -27 -31 -28 -32 -105
-29 l-78 3 -3 74 c-2 41 -1 80 2 88 8 21 293 19 324 -3z"/>
<path d="M2060 1885 c13 -14 25 -25 27 -25 2 0 3 11 3 25 0 20 -5 25 -27 25
l-26 0 23 -25z"/>
<path d="M904 1692 c-44 -103 -69 -292 -48 -368 5 -21 6 -21 80 10 l74 30 0
172 c0 188 0 187 -58 191 -28 2 -34 -2 -48 -35z m57 -34 c0 -7 0 -69 -1 -138
-1 -133 -7 -150 -53 -150 -19 0 -20 5 -14 93 5 79 12 111 42 195 2 6 9 12 15
12 5 0 10 -6 11 -12z"/>
<path d="M1055 1555 c0 -96 3 -175 7 -175 4 0 19 5 35 11 39 15 209 49 244 49
26 0 29 3 24 23 -9 33 11 75 40 89 14 6 25 19 25 29 0 16 -9 17 -92 12 -129
-8 -169 5 -209 65 -30 45 -56 72 -68 72 -3 0 -6 -79 -6 -175z m76 39 c28 -26
90 -43 152 -44 56 0 58 -1 52 -22 -12 -39 -38 -54 -115 -67 -125 -22 -115 -28
-118 67 -2 45 0 82 4 82 4 0 15 -7 25 -16z"/>
<path d="M1953 1724 c-7 -3 -28 -28 -48 -55 -50 -70 -84 -82 -210 -78 -83 3
-100 1 -103 -11 -1 -9 9 -20 28 -27 31 -11 50 -45 50 -87 0 -21 6 -24 58 -30
54 -6 198 -37 232 -50 13 -5 15 17 15 169 0 96 -2 175 -5 174 -3 0 -10 -3 -17
-5z m-26 -281 c-9 -8 -201 36 -213 49 -6 7 -15 23 -18 34 -6 20 -2 22 69 26
64 4 82 10 118 36 l42 30 3 -85 c2 -47 1 -87 -1 -90z"/>
<path d="M2035 1717 c-3 -7 -6 -89 -7 -182 l-3 -170 72 -31 73 -31 6 34 c13
71 -2 214 -32 303 l-29 85 -38 2 c-21 0 -40 -4 -42 -10z m78 -108 c22 -64 35
-223 19 -233 -6 -3 -22 -1 -36 5 l-26 12 0 139 c0 155 11 174 43 77z"/>
<path d="M905 1158 c24 -58 105 -47 105 14 0 15 -9 18 -60 18 l-59 0 14 -32z"/>
<path d="M1055 1150 c-1 -50 -23 -74 -70 -74 -19 0 -35 -3 -35 -6 0 -3 22 -33
50 -66 43 -55 172 -164 193 -164 4 0 7 79 6 175 l-2 175 -71 0 -71 0 0 -40z
m79 -6 c13 -5 16 -25 16 -110 0 -66 -4 -104 -10 -104 -13 0 -110 89 -110 100
0 4 14 22 30 40 17 18 30 37 30 44 0 7 5 17 12 24 14 14 12 14 32 6z"/>
<path d="M1835 1015 c0 -96 2 -175 5 -175 18 0 153 116 193 165 51 64 57 80
28 70 -46 -14 -103 52 -85 98 5 15 -3 17 -67 17 l-74 0 0 -175z m103 104 c9
-18 27 -41 40 -52 12 -11 22 -26 22 -32 0 -15 -95 -105 -110 -105 -15 0 -13
207 3 213 23 10 28 7 45 -24z"/>
<path d="M2020 1174 c0 -34 20 -54 55 -54 28 0 37 6 50 30 8 16 15 31 15 35 0
3 -27 5 -60 5 -48 0 -60 -3 -60 -16z"/>
<path d="M942 965 c2 -22 9 -31 26 -33 29 -4 28 9 -4 39 l-26 24 4 -30z"/>
<path d="M2062 962 c-23 -32 -23 -32 -2 -32 22 0 34 18 28 47 -3 14 -7 12 -26
-15z"/>
<path d="M2786 211 c-29 -30 -36 -44 -31 -60 7 -23 64 -71 85 -71 17 0 80 65
80 83 0 19 -65 87 -82 87 -8 0 -31 -18 -52 -39z m104 -36 c21 -7 21 -8 -8 -25
-17 -10 -33 -28 -37 -40 -7 -21 -8 -21 -25 8 -10 17 -28 33 -40 37 -21 7 -21
8 8 25 17 10 33 28 37 40 7 21 8 21 25 -8 10 -17 28 -33 40 -37z"/>
</g>
</svg>
